<?xml version="1.0" encoding="UTF-8"?>
<svg xmlns="http://www.w3.org/2000/svg" viewBox="0 0 1080 1080">
  <defs>
    <style>
      .cls-1, .cls-2 {
        fill: #fff;
      }

      .cls-3 {
        stroke-width: 15px;
      }

      .cls-3, .cls-4, .cls-5 {
        fill: none;
        stroke: #fff;
        stroke-miterlimit: 10;
      }

      .cls-4 {
        stroke-width: 13px;
      }

      .cls-5 {
        stroke-width: 9px;
      }

      .cls-2 {
        font-family: KristenITC-Regular, 'Kristen ITC';
        font-size: 141px;
        letter-spacing: .06em;
      }

      .cls-6 {
        fill: #b191db;
      }
    </style>
  </defs>
  <g id="Capa_1" data-name="Capa 1">
    <g>
      <rect class="cls-6" x=".5" y=".5" width="1079" height="1079"/>
      <path d="M1079,1V1079H1V1H1079m1-1H0V1080H1080V0h0Z"/>
    </g>
  </g>
  <g id="Capa_3" data-name="Capa 3">
    <g>
      <g>
        <path class="cls-4" d="M264.9,215.99c9.41,3.11,6,0,12-7,0,0,25.72-29.45,38-54,1-2-1,4,0,0,0,0,17-24,31-19,25.32,9.04,82.01,30.11,127.3,96.97,5.28,7.79,17.8,16.95,22.7,26.03"/>
        <path class="cls-3" d="M689.74,190.28c33.77,3.37,113.6,5.88,153.16,107.71l76,6s18.34-6.65,11,21.5c-1.41,5.39-1.49,7.16-1.19,7.51,.97,1.13,1.18,2.73,1.16,4.21-2.01,154.11-116.97,168.78-116.97,168.78-91,152-279.5,261.1-279.5,261.1,0,0-149.5-71.1-278.5-254.1,0,0-50.58,7.99-101.59-47.93-3.14-3.44-.28,.87-3.41-3.07,0,0-5-11,3-22,9.75-13.41,19.37-37.33,18-62-2-36-15-114,110-167"/>
        <path class="cls-4" d="M479.9,240.99c16.88,14.15,29.93,36.37,50.35,77.3"/>
        <path class="cls-3" d="M692.9,190.99s-58-4-105,31c-62.29,46.39-63.37,133.39-57,188,16.99,145.76,134.65,94.23,115-4-1-5-10.57-55-20-61"/>
        <path class="cls-6" d="M317.69,223.37c-4.63,4.91-8.64,10.39-11.91,16.29-.94,1.69,1.65,3.21,2.59,1.51,3.15-5.69,6.98-10.95,11.44-15.69,1.32-1.4-.79-3.53-2.12-2.12h0Z"/>
        <path class="cls-6" d="M280.97,214.76l-2.63,6.19c-.16,.39-.27,.73-.15,1.16,.1,.35,.36,.73,.69,.9,.64,.34,1.72,.23,2.05-.54l2.63-6.19c.16-.39,.27-.73,.15-1.16-.1-.35-.36-.73-.69-.9-.64-.34-1.72-.23-2.05,.54h0Z"/>
        <path class="cls-6" d="M282.78,215.11c-.07,.18-.14,.36-.21,.53l.15-.36c-.44,1.03-1.01,2-1.69,2.89l.23-.3c-.4,.52-.84,1.01-1.31,1.46l2.36,1.82c.44-.76,.94-1.5,1.47-2.2l-.23,.3c.23-.3,.48-.6,.73-.89,.26-.31,.44-.65,.44-1.06,0-.37-.16-.81-.44-1.06-.56-.52-1.57-.63-2.12,0-.91,1.06-1.73,2.19-2.43,3.39-.38,.65-.2,1.48,.39,1.94s1.43,.41,1.97-.12c1.62-1.55,2.82-3.45,3.6-5.55,.13-.35,.03-.85-.15-1.16s-.54-.61-.9-.69c-.38-.09-.81-.07-1.16,.15s-.55,.51-.69,.9h0Z"/>
        <path class="cls-6" d="M282.81,216.16l1.08-.2-1.69-2.2c-1.22,2.21-2.39,4.48-3.85,6.54-1.16,1.63-2.8,3.32-4.57,4.06-.75,.31-1.28,.99-1.05,1.85,.19,.7,1.09,1.36,1.85,1.05,5.16-2.17,7.65-7.36,10.22-11.98,.67-1.21-.43-2.44-1.69-2.2l-1.08,.2c-.8,.15-1.25,1.11-1.05,1.85,.23,.83,1.05,1.2,1.85,1.05h0Z"/>
        <path class="cls-6" d="M278.4,220.03c-.04,.11-.08,.22-.12,.33-.09,.23,.15-.3-.05,.09-.1,.19-.19,.38-.3,.56-.06,.1-.12,.2-.19,.3-.02,.03-.23,.32-.13,.19,.09-.12-.16,.18-.15,.18-.06,.07-.12,.14-.19,.21-.16,.17-.33,.33-.51,.49-.03,.02-.31,.25-.18,.15,.12-.09-.2,.14-.19,.13-.42,.28-.87,.52-1.33,.74-1.94,.97-3.73,2.11-5.35,3.56-.59,.52-.57,1.59,0,2.12,.63,.58,1.49,.56,2.12,0,.2-.18,.41-.36,.61-.53,.23-.19,.33-.27,.46-.37,.43-.32,.88-.63,1.33-.92,.94-.59,1.94-1.05,2.91-1.57,1.97-1.06,3.41-2.76,4.15-4.87,.26-.74-.29-1.67-1.05-1.85-.84-.19-1.57,.25-1.85,1.05h0Z"/>
        <path class="cls-6" d="M272.13,226.32c4.85-2.32,9.33-5.37,13.3-9,.6-.55,.55-1.57,0-2.12-.6-.6-1.52-.55-2.12,0-3.79,3.46-8.07,6.32-12.7,8.53-.73,.35-.92,1.39-.54,2.05,.44,.75,1.32,.89,2.05,.54h0Z"/>
        <path class="cls-6" d="M270.6,226.99c1.93,0,1.93-3,0-3s-1.93,3,0,3h0Z"/>
        <path class="cls-6" d="M278.41,222.68c.08-.24-.02,0,.05-.13,.05-.11,.11-.22,.18-.33,.05-.09,.11-.17,.16-.25l.09-.12c-.07,.08-.07,.09,0,0,.29-.35,.62-.67,.95-.99,.83-.79,1.68-1.56,2.53-2.33,1.71-1.53,3.45-3.02,5.22-4.48,.61-.5,.56-1.61,0-2.12-.65-.59-1.47-.53-2.12,0-1.87,1.53-3.7,3.1-5.5,4.72-1.67,1.51-3.7,3.02-4.45,5.22-.25,.74,.29,1.67,1.05,1.85,.83,.19,1.57-.25,1.85-1.05h0Z"/>
        <path class="cls-1" d="M623.12,349.43c.24-.05,.44,.04,.63,.17-.23-.16,.04,.09-.11-.14s-.02,.07-.09-.19c-.04-.14-.08-.28-.11-.43-.09-.48-.13-1.17-.12-1.82,.03-1.2,.29-2.45,.85-3.49s1.43-1.99,2.52-2.35c.57-.19,.98-.21,1.47-.06,.44,.13,.78,.4,1.01,.83,.38,.71,1.37,.94,2.05,.54,.72-.42,.92-1.34,.54-2.05-.81-1.51-2.48-2.39-4.17-2.41s-3.34,.83-4.53,2.01c-2.2,2.18-3.01,5.51-2.67,8.53,.1,.91,.24,1.82,.78,2.59,.65,.94,1.61,1.4,2.75,1.16,.79-.17,1.25-1.1,1.05-1.85-.23-.82-1.05-1.21-1.85-1.05h0Z"/>
        <path class="cls-1" d="M626.74,339.64c-2.25,1.8-3.18,4.77-2.71,7.56,.2,1.21,2.25,1.52,2.74,.36,.61-1.44,1.06-3.28,.35-4.77-.38-.79-1.11-1.35-2.01-1.33s-1.58,.74-1.94,1.53c-.61,1.34-.59,2.84-.21,4.25s1.05,2.58,1.38,3.94c.19,.79,1.08,1.26,1.85,1.05,.8-.22,1.24-1.06,1.05-1.85-.23-.93-.61-1.8-.96-2.7-.17-.43-.33-.87-.44-1.32-.05-.21-.1-.42-.13-.63,.03,.23-.01-.26-.02-.32,0-.18,0-.37,.01-.55-.02,.24,.07-.3,.09-.36,.06-.17,.07-.19,.01-.07,.04-.09,.09-.19,.14-.27,.35-.49-.07-.44-1.27,.16-.28-.32-.35-.37-.21-.15-.06-.14-.06-.13,0,.04-.02-.15-.03-.11,0,.1,0,.24,0,.49-.02,.73-.02,.18-.17,.8-.25,1l2.74,.36c-.08-.46,0,.27-.02-.19,0-.1-.01-.2-.02-.3,0-.27,0-.55,.03-.82,.02-.16-.04,.15,.02-.12,.03-.12,.05-.24,.08-.36,.07-.27,.15-.53,.24-.78,.09-.24-.01,.01,.05-.12,.06-.11,.11-.22,.17-.33,.12-.22,.25-.43,.39-.63,.24-.36-.16,.15,.13-.17,.08-.09,.16-.19,.25-.27,.19-.2,.39-.38,.61-.55,.63-.51,.53-1.59,0-2.12-.63-.63-1.49-.51-2.12,0h0Z"/>
        <path class="cls-5" d="M228.9,346.29s18.34-51.5,36.68-28.22c8.41,10.67,14.82,28.92,14.82,28.92"/>
        <path class="cls-5" d="M719.9,317.29s18.34-51.5,36.68-28.22c8.41,10.67,14.82,28.92,14.82,28.92"/>
      </g>
      <text class="cls-2" transform="translate(175.22 894.76)"><tspan x="0" y="0">MichPets</tspan></text>
    </g>
  </g>
</svg>